<?xml version="1.0" encoding="utf-8"?>
<!-- Generator: Adobe Illustrator 27.1.1, SVG Export Plug-In . SVG Version: 6.00 Build 0)  -->
<svg version="1.1" id="Uncle" xmlns="http://www.w3.org/2000/svg" xmlns:xlink="http://www.w3.org/1999/xlink" x="0px" y="0px"
	 viewBox="0 0 800 800" style="enable-background:new 0 0 800 800;" xml:space="preserve">
<style type="text/css">
	.st0{fill:#FFC866;}
	.st1{fill:#FFFFFF;}
	.st2{fill:#FFBF94;}
	.st3{fill:#ED9572;}
	.st4{fill:#0A717F;}
	.st5{fill:#19929B;}
	.st6{fill:#7C4E2E;}
	.st7{fill:#F97A7A;}
	.st8{fill:#493E2F;}
</style>
<path class="st0" d="M576.4,670.8c0,97.4-352.8,97.4-352.8,0c0-97.4,79-176.4,176.4-176.4S576.4,573.4,576.4,670.8z"/>
<path class="st1" d="M425.9,540.9l-25.1,20.8c-0.3,0.2-0.6,0.5-0.8,0.8c-0.2-0.3-0.5-0.5-0.8-0.8l-25.1-20.8
	c-3.9-3.2-10.6-0.9-10.6,3.6v41.6c0,4.6,6.7,6.8,10.6,3.6l25.1-20.8c0.3-0.2,0.6-0.5,0.8-0.8c0.2,0.3,0.5,0.5,0.8,0.8l25.1,20.8
	c3.9,3.2,10.6,0.9,10.6-3.6v-41.6C436.4,540,429.8,537.7,425.9,540.9z"/>
<circle class="st2" cx="182.4" cy="333" r="57.1"/>
<path class="st3" d="M182.4,368c-27.7,0-50.8-19.8-56-46c-0.7,3.6-1.1,7.3-1.1,11.1c0,31.5,25.6,57.1,57.1,57.1s57.1-25.6,57.1-57.1
	c0-3.8-0.4-7.5-1.1-11.1C233.2,348.2,210.1,368,182.4,368z"/>
<circle class="st2" cx="617.6" cy="333" r="57.1"/>
<path class="st3" d="M617.6,368c-27.7,0-50.8-19.8-56-46c-0.7,3.6-1.1,7.3-1.1,11.1c0,31.5,25.6,57.1,57.1,57.1s57.1-25.6,57.1-57.1
	c0-3.8-0.4-7.5-1.1-11.1C668.5,348.2,645.3,368,617.6,368z"/>
<path class="st2" d="M600,247.8C595.5,141.2,512.9,56.2,400,56.1v0c0,0,0,0,0,0s0,0,0,0v0c-112.8,0-195.5,85.1-199.9,191.7h-0.2
	v122.7h0.2c4.5,106.6,94,157.6,199.9,157.6l0,0c0,0,0,0,0,0c0,0,0,0,0,0l0,0c106,0,195.5-51,199.9-157.6h0.2V247.8L600,247.8
	L600,247.8z"/>
<path class="st4" d="M576.5,670.8c0-62-32-116.5-80.4-148l-96.1,151l-96.1-151c-48.4,31.5-80.4,86-80.4,148c0,48,85.7,72.4,172.6,73
	l0,0c0.2,0,0.5,0,0.7,0c1.1,0,2.1,0,3.2,0c1.1,0,2.1,0,3.2,0c0.2,0,0.5,0,0.7,0l0,0C490.8,743.2,576.5,718.8,576.5,670.8z"/>
<path class="st5" d="M573.9,640.5c-8.5-49.2-37.5-91.4-77.8-117.6l-96.1,151l-96.1-151c-40.3,26.2-69.2,68.4-77.8,117.6
	c15.1,39.2,93.8,58.9,172.8,59.1c0.4,0,0.7,0,1.1,0s0.7,0,1.1,0C480,699.4,558.8,679.7,573.9,640.5z"/>
<circle class="st1" cx="400" cy="598.8" r="12.5"/>
<path class="st6" d="M372,112h-92.2c-19.8,0-35.9-16.2-35.9-35.9l0,0c0-19.8,16.2-35.9,35.9-35.9H372c19.8,0,35.9,16.2,35.9,35.9
	l0,0C408,95.8,391.8,112,372,112z"/>
<path class="st6" d="M520.6,112h-92.2c-19.8,0-35.9-16.2-35.9-35.9l0,0c0-19.8,16.2-35.9,35.9-35.9h92.2c19.8,0,35.9,16.2,35.9,35.9
	l0,0C556.6,95.8,540.4,112,520.6,112z"/>
<circle class="st7" cx="272.2" cy="386.7" r="47.7"/>
<circle class="st7" cx="527.8" cy="386.7" r="47.7"/>
<circle class="st8" cx="325.9" cy="303.2" r="27.3"/>
<circle class="st8" cx="474.5" cy="303.2" r="27.3"/>
<path class="st7" d="M400.2,424c-14.2,0-28.4-5.4-39.2-16.2c-3.7-3.7-3.7-9.6,0-13.3c3.7-3.7,9.6-3.7,13.3,0
	c14.3,14.3,37.5,14.3,51.8,0c3.7-3.7,9.6-3.7,13.3,0s3.7,9.6,0,13.3C428.6,418.6,414.4,424,400.2,424z"/>
<path class="st8" d="M355.7,414.5c-5,0-8.9-4.5-8-9.4c4.4-25,26.3-44,52.6-44s48.1,19,52.6,44c0.9,4.9-3,9.4-8,9.4H355.7z"/>
<path class="st6" d="M335.5,139.6h-92.2c-19.8,0-35.9-16.2-35.9-35.9l0,0c0-19.8,16.2-35.9,35.9-35.9h92.2
	c19.8,0,35.9,16.2,35.9,35.9l0,0C371.4,123.5,355.2,139.6,335.5,139.6z"/>
<path class="st6" d="M297.4,175.6h-92.2c-19.8,0-35.9-16.2-35.9-35.9l0,0c0-19.8,16.2-35.9,35.9-35.9h92.2
	c19.8,0,35.9,16.2,35.9,35.9l0,0C333.4,159.4,317.2,175.6,297.4,175.6z"/>
<path class="st6" d="M269.6,224.4h-92.2c-19.8,0-35.9-16.2-35.9-35.9l0,0c0-19.8,16.2-35.9,35.9-35.9h92.2
	c19.8,0,35.9,16.2,35.9,35.9l0,0C305.6,208.3,289.4,224.4,269.6,224.4z"/>
<path class="st6" d="M242.1,284.7h-92.2c-19.8,0-35.9-16.2-35.9-35.9l0,0c0-19.8,16.2-35.9,35.9-35.9h92.2
	c19.8,0,35.9,16.2,35.9,35.9l0,0C278,268.5,261.9,284.7,242.1,284.7z"/>
<path class="st6" d="M454.1,83.6h-92.2c-19.8,0-35.9-16.2-35.9-35.9l0,0c0-19.8,16.2-35.9,35.9-35.9h92.2
	c19.8,0,35.9,16.2,35.9,35.9l0,0C490,67.4,473.8,83.6,454.1,83.6z"/>
<path class="st6" d="M636.9,217.6h-92.2c-19.8,0-35.9-16.2-35.9-35.9l0,0c0-19.8,16.2-35.9,35.9-35.9h92.2
	c19.8,0,35.9,16.2,35.9,35.9l0,0C672.9,201.5,656.7,217.6,636.9,217.6z"/>
<path class="st6" d="M598.1,175.6h-92.2c-19.8,0-35.9-16.2-35.9-35.9l0,0c0-19.8,16.2-35.9,35.9-35.9h92.2
	c19.8,0,35.9,16.2,35.9,35.9l0,0C634,159.4,617.9,175.6,598.1,175.6z"/>
<path class="st6" d="M558.9,139.6h-92.2c-19.8,0-35.9-16.2-35.9-35.9l0,0c0-19.8,16.2-35.9,35.9-35.9h92.2
	c19.8,0,35.9,16.2,35.9,35.9l0,0C594.9,123.5,578.7,139.6,558.9,139.6z"/>
<path class="st6" d="M660.1,284.7h-92.2c-19.8,0-35.9-16.2-35.9-35.9l0,0c0-19.8,16.2-35.9,35.9-35.9h92.2
	c19.8,0,35.9,16.2,35.9,35.9l0,0C696,268.5,679.9,284.7,660.1,284.7z"/>
</svg>
