<?xml version="1.0" encoding="utf-8"?>
<svg viewBox="388.42 75.665 231.026 238.665" width="231.026" height="464.682" xmlns="http://www.w3.org/2000/svg">
  <g transform="matrix(1, 0, 0, 1, 355.7692794799805, -196.15386962890625)">
    <g>
      <ellipse style="fill:#607D8B;" cx="148.164" cy="390.921" rx="105.846" ry="109.434"/>
      <path style="fill:#B2DFDB;" d="M148.164,271.819c-30.916,0-59.964,12.43-81.793,34.999c-21.745,22.482-33.72,52.35-33.72,84.102 s11.975,61.621,33.72,84.102c21.829,22.569,50.877,34.999,81.793,34.999s59.964-12.43,81.793-34.999 c21.745-22.482,33.72-52.35,33.72-84.102s-11.975-61.621-33.72-84.102C208.128,284.249,179.08,271.819,148.164,271.819z M148.164,500.355c-58.457,0-105.846-48.995-105.846-109.434s47.389-109.434,105.846-109.434S254.01,330.482,254.01,390.921 S206.621,500.355,148.164,500.355z"/>
    </g>
    <g>
      <defs>
        <ellipse id="SVGID_1_" cx="148.232" cy="390.904" rx="105.634" ry="109.285"/>
      </defs>
      <clipPath id="SVGID_00000074416344755782131310000006494988597057901447_">
        <ellipse cx="148.232" cy="390.904" rx="105.634" ry="109.285" style="overflow: visible;"/>
      </clipPath>
      <g style="clip-path:url(#SVGID_00000074416344755782131310000006494988597057901447_);">
        <g>
          <g>
            <path style="fill:#D89D6C;" d="M243.479,545.235h-9.52v21.069c-1.727,2.579-2.833,6.528-2.833,10.957 c0,7.769,3.4,14.068,7.593,14.068c4.193,0,7.593-6.298,7.593-14.068c0-4.43-1.106-8.379-2.833-10.957V545.235z"/>
          </g>
          <g>
            <path style="fill:#ECB888;" d="M58.34,545.235h-9.52v21.069c-1.727,2.579-2.833,6.528-2.833,10.957 c0,7.769,3.399,14.068,7.593,14.068s7.593-6.298,7.593-14.068c0-4.429-1.106-8.379-2.833-10.957V545.235z"/>
          </g>
          <g>
            <g>
              <path style="fill:#D89D6C;" d="M108.074,686.354c0.769,14.724,2.072,28.624,3.822,41.335h10.533 c-1.75-12.711-3.053-26.611-3.822-41.335H108.074z"/>
              <path style="fill:#ECB888;" d="M96.618,686.354c0.769,14.724,2.072,28.624,3.822,41.335h11.456 c-1.75-12.711-3.053-26.611-3.822-41.335H96.618z"/>
            </g>
            <g>
              <path style="fill:#0288D1;" d="M109.962,611.739c-1.619,16.28-2.508,33.957-2.508,52.434 c0,12.149,0.388,23.946,1.112,35.234h11.865c-0.723-11.288-1.111-23.084-1.111-35.234c0-18.477,0.888-36.154,2.508-52.434 H109.962z"/>
              <path style="fill:#03A9F4;" d="M98.221,611.739c-1.62,16.28-2.507,33.957-2.507,52.434c0,12.149,0.388,23.946,1.111,35.234 h11.74c-0.723-11.288-1.112-23.084-1.112-35.234c0-18.477,0.889-36.154,2.508-52.434H98.221z"/>
            </g>
            <g>
              <path style="fill:#D89D6C;" d="M178.322,732.448h10.654c1.839-13.358,3.185-28.029,3.936-43.589h-10.654 C181.507,704.419,180.161,719.09,178.322,732.448z"/>
              <path style="fill:#ECB888;" d="M166.987,732.448h11.335c1.839-13.358,3.185-28.029,3.936-43.589h-11.335 C170.173,704.419,168.827,719.09,166.987,732.448z"/>
            </g>
            <g>
              <path style="fill:#0288D1;" d="M180.3,612.114c1.619,16.28,2.507,33.957,2.507,52.434c0,12.149-0.388,23.946-1.112,35.234 h12.107c0.723-11.288,1.111-23.084,1.111-35.234c0-18.477-0.888-36.154-2.507-52.434H180.3z"/>
              <path style="fill:#03A9F4;" d="M168.801,612.114c1.62,16.28,2.508,33.957,2.508,52.434c0,12.149-0.388,23.946-1.112,35.234 h11.498c0.723-11.288,1.112-23.084,1.112-35.234c0-18.477-0.888-36.154-2.507-52.434H168.801z"/>
            </g>
            <g>
              <g>
                <path style="fill:#795548;" d="M110.446,716.523c-10.056,0-18.231,8.899-18.477,19.978h36.954 C128.677,725.422,120.502,716.523,110.446,716.523z"/>
                <path style="fill:#A1887F;" d="M91.969,736.5h18.128v-19.973C100.202,716.731,92.212,725.55,91.969,736.5z"/>
              </g>
            </g>
            <g>
              <g>
                <path style="fill:#795548;" d="M180.672,716.523c-10.056,0-18.231,8.899-18.477,19.978h36.954 C198.903,725.422,190.728,716.523,180.672,716.523z"/>
                <path style="fill:#A1887F;" d="M162.195,736.5h18.128v-19.973C170.428,716.731,162.438,725.55,162.195,736.5z"/>
              </g>
            </g>
          </g>
          <g>
            <path style="fill:#00BCD4;" d="M144.815,435.176c-8.887,0-17.435,3.145-25.422,8.946 c-41.279,1.974-75.068,43.647-81.041,97.588h27.747c3.22-30.744,15.466-57.572,33.005-75.444 c-20.754,31.383-34.334,83.55-34.334,142.601c0,2.508,0.026,5.003,0.074,7.484h159.942c0.048-2.482,0.074-4.977,0.074-7.484 C224.861,512.94,189.023,435.176,144.815,435.176z"/>
            <path style="fill:#00A3AF;" d="M251.303,541.435c-5.906-53.338-39.009-94.679-79.659-97.506 c-8.5-6.732-17.668-10.405-27.228-10.405c-0.042,0-0.083,0.002-0.125,0.002v182.827h80.096 c0.049-2.504,0.074-5.022,0.074-7.553c0-58.386-13.038-110.102-33.085-141.956c17.097,17.866,29.011,44.332,32.18,74.591 H251.303z"/>
            <path style="fill:#80DEEA;" d="M66.361,535.19H36.896c-1.288,0-2.343,1.091-2.343,2.424v7.756 c0,1.333,1.054,2.424,2.343,2.424h29.465c1.288,0,2.343-1.091,2.343-2.424v-7.756 C68.704,536.281,67.649,535.19,66.361,535.19z"/>
            <path style="fill:#00BCD4;" d="M252.956,537.532h-29.465c-1.288,0-2.343,1.091-2.343,2.424v7.756 c0,1.333,1.054,2.424,2.343,2.424h29.465c1.288,0,2.343-1.091,2.343-2.424v-7.756 C255.298,538.622,254.244,537.532,252.956,537.532z"/>
            <g>
              <g>
                <polygon style="fill:#80DEEA;" points="146.111,446.651 146.008,444.318 113.254,439.359 128.699,474.898 146.647,459.743 &#10;&#9;&#9;&#9;&#9;&#9;&#9;&#9;&#9;&#9;&#9;164.595,474.898 180.04,439.359 147.286,444.318 &#9;&#9;&#9;&#9;&#9;&#9;&#9;&#9;&#9;"/>
                <polygon style="fill:#80DEEA;" points="139.987,616.452 148.774,616.452 149.064,456.761 139.987,461.348 &#9;&#9;&#9;&#9;&#9;&#9;&#9;&#9;&#9;"/>
                <path style="fill:#FFFFFF;" d="M144.242,470.738c-1.812,0-3.281,1.52-3.281,3.395c0,1.875,1.469,3.394,3.281,3.394 s3.281-1.52,3.281-3.394C147.523,472.258,146.054,470.738,144.242,470.738z"/>
                <ellipse style="fill:#FFFFFF;" cx="144.242" cy="493.53" rx="3.281" ry="3.395"/>
                <path style="fill:#FFFFFF;" d="M144.242,509.209c-1.812,0-3.281,1.52-3.281,3.394c0,1.875,1.469,3.395,3.281,3.395 s3.281-1.52,3.281-3.395C147.523,510.729,146.054,509.209,144.242,509.209z"/>
                <path style="fill:#FFFFFF;" d="M144.242,529.415c-1.812,0-3.281,1.52-3.281,3.395c0,1.875,1.469,3.395,3.281,3.395 s3.281-1.52,3.281-3.395C147.523,530.935,146.054,529.415,144.242,529.415z"/>
                <path style="fill:#FFFFFF;" d="M144.242,552.207c-1.812,0-3.281,1.52-3.281,3.394c0,1.875,1.469,3.395,3.281,3.395 s3.281-1.52,3.281-3.395C147.523,553.727,146.054,552.207,144.242,552.207z"/>
                <ellipse style="fill:#FFFFFF;" cx="144.242" cy="576.454" rx="3.281" ry="3.395"/>
                <path style="fill:#FFFFFF;" d="M144.242,594.882c-1.812,0-3.281,1.52-3.281,3.394c0,1.875,1.469,3.395,3.281,3.395 s3.281-1.52,3.281-3.395C147.523,596.401,146.054,594.882,144.242,594.882z"/>
              </g>
            </g>
          </g>
        </g>
        <g>
          <g>
            <ellipse style="fill:#ECB888;" cx="145.933" cy="374.536" rx="60.559" ry="74.212"/>
            <path style="fill:#D89D6C;" d="M145.933,300.324c-0.153,0-0.304,0.006-0.457,0.007v148.411 c0.152,0.001,0.304,0.007,0.457,0.007c33.445,0,60.559-33.226,60.559-74.212C206.492,333.55,179.379,300.324,145.933,300.324 z"/>
          </g>
          <path style="fill:#916340;" d="M145.893,420.082c11.128,0,20.166-9.317,20.357-20.884h-40.715 C125.727,410.765,134.765,420.082,145.893,420.082z"/>
          <g>
            <path style="fill:#231F20;" d="M134.464,365.723c-2.946,0-5.335,2.471-5.335,5.519c0,3.048,2.389,5.519,5.335,5.519 c2.946,0,5.335-2.471,5.335-5.519C139.799,368.194,137.411,365.723,134.464,365.723z"/>
            <path style="fill:#231F20;" d="M157.679,365.723c-2.946,0-5.335,2.471-5.335,5.519c0,3.048,2.389,5.519,5.335,5.519 c2.946,0,5.335-2.471,5.335-5.519C163.013,368.194,160.625,365.723,157.679,365.723z"/>
            <rect x="121.235" y="351.104" style="fill:#563E3B;" width="18.564" height="3.356"/>
            <rect x="152.343" y="351.104" style="fill:#563E3B;" width="18.564" height="3.356"/>
          </g>
          <g>
            <path style="fill:#ECB888;" d="M85.112,362.206c-4.977,0-9.012,4.299-9.012,9.603c0,5.303,4.035,9.603,9.012,9.603 c4.977,0,9.012-4.299,9.012-9.603C94.124,366.505,90.089,362.206,85.112,362.206z"/>
            <path style="fill:#D89D6C;" d="M205.689,360.52c-4.977,0-9.012,4.299-9.012,9.603c0,5.303,4.035,9.603,9.012,9.603 c4.977,0,9.012-4.299,9.012-9.603C214.701,364.819,210.666,360.52,205.689,360.52z"/>
          </g>
          <path style="fill:#563E3B;" d="M197.82,315.051c-0.142-0.049-0.285-0.096-0.432-0.135 C197.517,315.04,197.669,315.075,197.82,315.051z"/>
          <path style="fill:#563E3B;" d="M203.653,319.083c-0.686-2.815-2.515-5.54-5.193-6.46c-0.152,0.024-0.304-0.011-0.432-0.135 c0.147,0.038,0.29,0.086,0.432,0.135c0.434-0.068,0.863-0.636,0.723-1.131c-0.189-0.667-0.894-1.02-1.537-1.258 c-2.847-1.054-5.993-1.457-8.484-3.211c-0.773-0.544-1.467-1.21-2.3-1.652c-1.674-0.889-3.668-0.767-5.538-1.04 c-4.063-0.592-7.573-3.062-11.206-5c-13.811-7.369-30.661-7.255-45.526-2.441c1.582,0.028,3.163,0.056,4.745,0.084 c-8.151,2.083-15.897,5.788-22.667,10.844c1.886-0.379,3.771-0.758,5.657-1.137c-6.682,3.364-12.845,7.785-18.199,13.055 c1.544-0.356,3.089-0.711,4.633-1.067c-6.935,2.555-12.689,8.231-15.401,15.193c0.924-0.589,1.993-0.941,3.082-1.013 c0.824,10.53,0.866,21.123,0.126,31.66c1.164,0.003,2.327,0.006,3.491,0.009c0.482-7.302,2.726-14.477,6.479-20.726 c0.15,0.693,0.301,1.387,0.452,2.08c4.064-4.069,8.128-8.139,12.192-12.208c-0.52,2.564-1.838,4.955-3.718,6.746 c5.434-1.508,10.528-4.261,14.793-7.995c0.022,1.136-0.252,2.276-0.789,3.273c8.52-1.854,16.758-5.038,24.335-9.404 c-1.518,1.851-3.337,3.447-5.361,4.705c1.693-0.569,3.385-1.137,5.077-1.706c-0.634,0.941-1.268,1.881-1.901,2.822 c5.782-1.118,11.292-3.656,15.927-7.336c-0.322,0.975-0.643,1.95-0.965,2.924c5.552-2.823,10.728-6.403,15.346-10.614 c1.913,2.862,4.375,5.346,7.207,7.27c0.743-0.966,1.486-1.933,2.228-2.9c0.956,5.523,3.837,10.683,8.014,14.354 c0.111-0.768,0.222-1.536,0.333-2.304c5.78,8.181,11.497,19.986,12.137,30.031c1.574-0.345,3.027,0,4.238-0.123 c-0.332-2.609,0.202-26.876,0.484-33.292C206.704,327.067,204.375,322.048,203.653,319.083z"/>
          <path style="fill:#6D4C41;" d="M129.337,296.976c-8.151,2.083-15.897,5.788-22.667,10.844 c1.886-0.379,3.771-0.758,5.657-1.137c-6.682,3.364-12.845,7.785-18.199,13.055c1.544-0.356,3.089-0.711,4.633-1.067 c-6.935,2.555-12.689,8.231-15.401,15.193c0.924-0.589,1.993-0.941,3.082-1.013c0.824,10.53,0.866,21.123,0.126,31.66 c1.164,0.003,2.327,0.006,3.491,0.009c0.482-7.302,2.726-14.477,6.479-20.726c0.15,0.693,0.301,1.387,0.452,2.08 c4.064-4.069,8.128-8.139,12.192-12.208c-0.52,2.564-1.838,4.955-3.718,6.746c5.434-1.508,10.528-4.261,14.793-7.995 c0.022,1.136-0.252,2.276-0.789,3.273c8.52-1.854,16.758-5.038,24.335-9.404c-1.518,1.851-3.337,3.447-5.361,4.705 c1.693-0.569,3.385-1.137,5.077-1.706c-0.634,0.941-1.268,1.881-1.901,2.822c1.097-0.212,2.181-0.492,3.254-0.804v-37.797 c-6.859,0.068-13.761,1.274-20.281,3.385C126.174,296.92,127.755,296.948,129.337,296.976z"/>
        </g>
      </g>
    </g>
  </g>
</svg>