<?xml version="1.0" encoding="utf-8"?>
<!-- Generator: Adobe Illustrator 27.1.1, SVG Export Plug-In . SVG Version: 6.00 Build 0)  -->
<svg version="1.1" id="Layer_1" xmlns="http://www.w3.org/2000/svg" xmlns:xlink="http://www.w3.org/1999/xlink" x="0px" y="0px"
	 viewBox="0 0 231 239.8" style="enable-background:new 0 0 231 239.8;" xml:space="preserve">
<style type="text/css">
	.st0{fill:#607D8B;}
	.st1{fill:#B2DFDB;}
	.st2{clip-path:url(#SVGID_00000119089896903269363600000004260073621446925701_);}
	.st3{fill:#D89D6C;}
	.st4{fill:#ECB888;}
	.st5{fill:#0288D1;}
	.st6{fill:#03A9F4;}
	.st7{fill:#795548;}
	.st8{fill:#A1887F;}
	.st9{fill:#00BCD4;}
	.st10{fill:#00A3AF;}
	.st11{fill:#80DEEA;}
	.st12{fill:#FFFFFF;}
	.st13{fill:#916340;}
	.st14{fill:#231F20;}
	.st15{fill:#563E3B;}
	.st16{fill:#6D4C41;}
</style>
<g transform="matrix(1, 0, 0, 1, 355.7692794799805, -196.15386962890625)">
	<g>
		<ellipse class="st0" cx="-240.1" cy="315.3" rx="105.8" ry="109.4"/>
		<path class="st1" d="M-240.1,196.2c-30.9,0-60,12.4-81.8,35c-21.7,22.5-33.7,52.4-33.7,84.1s12,61.6,33.7,84.1
			c21.8,22.6,50.9,35,81.8,35s60-12.4,81.8-35c21.7-22.5,33.7-52.4,33.7-84.1s-12-61.6-33.7-84.1
			C-180.2,208.6-209.2,196.2-240.1,196.2z M-240.1,424.7c-58.5,0-105.8-49-105.8-109.4s47.4-109.4,105.8-109.4s105.8,49,105.8,109.4
			S-181.7,424.7-240.1,424.7z"/>
	</g>
	<g>
		<g>
			<defs>
				<ellipse id="SVGID_1_" cx="-240.1" cy="315.2" rx="105.6" ry="109.3"/>
			</defs>
			<clipPath id="SVGID_00000178173508948092001160000008314319036592031914_">
				<use xlink:href="#SVGID_1_"  style="overflow:visible;"/>
			</clipPath>
			<g style="clip-path:url(#SVGID_00000178173508948092001160000008314319036592031914_);">
				<g>
					<g>
						<path class="st3" d="M-144.8,469.6h-9.5v21.1c-1.7,2.6-2.8,6.5-2.8,11c0,7.8,3.4,14.1,7.6,14.1c4.2,0,7.6-6.3,7.6-14.1
							c0-4.4-1.1-8.4-2.8-11L-144.8,469.6L-144.8,469.6z"/>
					</g>
					<g>
						<path class="st4" d="M-329.9,469.6h-9.5v21.1c-1.7,2.6-2.8,6.5-2.8,11c0,7.8,3.4,14.1,7.6,14.1s7.6-6.3,7.6-14.1
							c0-4.4-1.1-8.4-2.8-11C-329.9,490.6-329.9,469.6-329.9,469.6z"/>
					</g>
					<g>
						<g>
							<path class="st3" d="M-280.2,610.7c0.8,14.7,2.1,28.6,3.8,41.3h10.5c-1.8-12.7-3.1-26.6-3.8-41.3H-280.2z"/>
							<path class="st4" d="M-291.7,610.7c0.8,14.7,2.1,28.6,3.8,41.3h11.5c-1.8-12.7-3.1-26.6-3.8-41.3H-291.7z"/>
						</g>
						<g>
							<path class="st5" d="M-278.3,536.1c-1.6,16.3-2.5,34-2.5,52.4c0,12.1,0.4,23.9,1.1,35.2h11.9c-0.7-11.3-1.1-23.1-1.1-35.2
								c0-18.5,0.9-36.2,2.5-52.4H-278.3z"/>
							<path class="st6" d="M-290.1,536.1c-1.6,16.3-2.5,34-2.5,52.4c0,12.1,0.4,23.9,1.1,35.2h11.7c-0.7-11.3-1.1-23.1-1.1-35.2
								c0-18.5,0.9-36.2,2.5-52.4H-290.1z"/>
						</g>
						<g>
							<path class="st3" d="M-210,656.8h10.7c1.8-13.4,3.2-28,3.9-43.6H-206C-206.8,628.8-208.1,643.4-210,656.8z"/>
							<path class="st4" d="M-221.3,656.8h11.3c1.8-13.4,3.2-28,3.9-43.6h-11.3C-218.1,628.8-219.5,643.4-221.3,656.8z"/>
						</g>
						<g>
							<path class="st5" d="M-208,536.4c1.6,16.3,2.5,34,2.5,52.4c0,12.1-0.4,23.9-1.1,35.2h12.1c0.7-11.3,1.1-23.1,1.1-35.2
								c0-18.5-0.9-36.2-2.5-52.4H-208z"/>
							<path class="st6" d="M-219.5,536.4c1.6,16.3,2.5,34,2.5,52.4c0,12.1-0.4,23.9-1.1,35.2h11.5c0.7-11.3,1.1-23.1,1.1-35.2
								c0-18.5-0.9-36.2-2.5-52.4H-219.5z"/>
						</g>
						<g>
							<g>
								<path class="st7" d="M-277.8,640.9c-10.1,0-18.2,8.9-18.5,20h37C-259.6,649.8-267.8,640.9-277.8,640.9z"/>
								<path class="st8" d="M-296.3,660.8h18.1v-20C-288.1,641.1-296.1,649.9-296.3,660.8z"/>
							</g>
						</g>
						<g>
							<g>
								<path class="st7" d="M-207.6,640.9c-10.1,0-18.2,8.9-18.5,20h37C-189.4,649.8-197.6,640.9-207.6,640.9z"/>
								<path class="st8" d="M-226.1,660.8h18.1v-20C-217.9,641.1-225.8,649.9-226.1,660.8z"/>
							</g>
						</g>
					</g>
					<g>
						<path class="st9" d="M-243.5,359.5c-8.9,0-17.4,3.1-25.4,8.9c-41.3,2-75.1,43.6-81,97.6h27.7c3.2-30.7,15.5-57.6,33-75.4
							c-20.8,31.4-34.3,83.6-34.3,142.6c0,2.5,0,5,0.1,7.5h159.9c0-2.5,0.1-5,0.1-7.5C-163.4,437.3-199.3,359.5-243.5,359.5z"/>
						<path class="st10" d="M-137,465.8c-5.9-53.3-39-94.7-79.7-97.5c-8.5-6.7-17.7-10.4-27.2-10.4c0,0-0.1,0-0.1,0v182.8h80.1
							c0-2.5,0.1-5,0.1-7.6c0-58.4-13-110.1-33.1-142c17.1,17.9,29,44.3,32.2,74.6L-137,465.8L-137,465.8z"/>
						<path class="st11" d="M-321.9,459.5h-29.5c-1.3,0-2.3,1.1-2.3,2.4v7.8c0,1.3,1.1,2.4,2.3,2.4h29.5c1.3,0,2.3-1.1,2.3-2.4v-7.8
							C-319.6,460.6-320.6,459.5-321.9,459.5z"/>
						<path class="st9" d="M-135.3,461.9h-29.5c-1.3,0-2.3,1.1-2.3,2.4v7.8c0,1.3,1.1,2.4,2.3,2.4h29.5c1.3,0,2.3-1.1,2.3-2.4v-7.8
							C-133,463-134,461.9-135.3,461.9z"/>
						<g>
							<g>
								<polygon class="st11" points="-242.2,371 -242.3,368.7 -275,363.7 -259.6,399.2 -241.6,384.1 -223.7,399.2 -208.2,363.7 
									-241,368.7 								"/>
								<polygon class="st11" points="-248.3,540.8 -239.5,540.8 -239.2,381.1 -248.3,385.7 								"/>
								<path class="st12" d="M-244,395.1c-1.8,0-3.3,1.5-3.3,3.4s1.5,3.4,3.3,3.4s3.3-1.5,3.3-3.4
									C-240.8,396.6-242.2,395.1-244,395.1z"/>
								<ellipse class="st12" cx="-244" cy="417.9" rx="3.3" ry="3.4"/>
								<path class="st12" d="M-244,433.5c-1.8,0-3.3,1.5-3.3,3.4c0,1.9,1.5,3.4,3.3,3.4s3.3-1.5,3.3-3.4
									C-240.8,435.1-242.2,433.5-244,433.5z"/>
								<path class="st12" d="M-244,453.7c-1.8,0-3.3,1.5-3.3,3.4s1.5,3.4,3.3,3.4s3.3-1.5,3.3-3.4
									C-240.8,455.3-242.2,453.7-244,453.7z"/>
								<path class="st12" d="M-244,476.5c-1.8,0-3.3,1.5-3.3,3.4c0,1.9,1.5,3.4,3.3,3.4s3.3-1.5,3.3-3.4
									C-240.8,478.1-242.2,476.5-244,476.5z"/>
								<ellipse class="st12" cx="-244" cy="500.8" rx="3.3" ry="3.4"/>
								<path class="st12" d="M-244,519.2c-1.8,0-3.3,1.5-3.3,3.4c0,1.9,1.5,3.4,3.3,3.4s3.3-1.5,3.3-3.4
									C-240.8,520.7-242.2,519.2-244,519.2z"/>
							</g>
						</g>
					</g>
				</g>
				<g>
					<g>
						<ellipse class="st4" cx="-242.4" cy="298.9" rx="60.6" ry="74.2"/>
						<path class="st3" d="M-242.4,224.7c-0.2,0-0.3,0-0.5,0v148.4c0.2,0,0.3,0,0.5,0c33.4,0,60.6-33.2,60.6-74.2
							C-181.8,257.9-208.9,224.7-242.4,224.7z"/>
					</g>
					<path class="st13" d="M-242.4,344.4c11.1,0,20.2-9.3,20.4-20.9h-40.7C-262.6,335.1-253.5,344.4-242.4,344.4z"/>
					<g>
						<path class="st14" d="M-253.8,290.1c-2.9,0-5.3,2.5-5.3,5.5s2.4,5.5,5.3,5.5c2.9,0,5.3-2.5,5.3-5.5
							C-248.5,292.5-250.9,290.1-253.8,290.1z"/>
						<path class="st14" d="M-230.6,290.1c-2.9,0-5.3,2.5-5.3,5.5s2.4,5.5,5.3,5.5s5.3-2.5,5.3-5.5
							C-225.3,292.5-227.7,290.1-230.6,290.1z"/>
						<rect x="-267.1" y="275.4" class="st15" width="18.6" height="3.4"/>
						<rect x="-235.9" y="275.4" class="st15" width="18.6" height="3.4"/>
					</g>
					<g>
						<path class="st4" d="M-303.2,286.5c-5,0-9,4.3-9,9.6c0,5.3,4,9.6,9,9.6c5,0,9-4.3,9-9.6S-298.2,286.5-303.2,286.5z"/>
						<path class="st3" d="M-182.6,284.9c-5,0-9,4.3-9,9.6c0,5.3,4,9.6,9,9.6c5,0,9-4.3,9-9.6C-173.6,289.2-177.6,284.9-182.6,284.9
							z"/>
					</g>
					<path class="st15" d="M-190.5,239.4c-0.1,0-0.3-0.1-0.4-0.1C-190.8,239.4-190.6,239.4-190.5,239.4z"/>
					<path class="st15" d="M-184.6,243.4c-0.7-2.8-2.5-5.5-5.2-6.5c-0.2,0-0.3,0-0.4-0.1c0.1,0,0.3,0.1,0.4,0.1
						c0.4-0.1,0.9-0.6,0.7-1.1c-0.2-0.7-0.9-1-1.5-1.3c-2.8-1.1-6-1.5-8.5-3.2c-0.8-0.5-1.5-1.2-2.3-1.7c-1.7-0.9-3.7-0.8-5.5-1
						c-4.1-0.6-7.6-3.1-11.2-5c-13.8-7.4-30.7-7.3-45.5-2.4c1.6,0,3.2,0.1,4.7,0.1c-8.2,2.1-15.9,5.8-22.7,10.8
						c1.9-0.4,3.8-0.8,5.7-1.1c-6.7,3.4-12.8,7.8-18.2,13.1c1.5-0.4,3.1-0.7,4.6-1.1c-6.9,2.6-12.7,8.2-15.4,15.2
						c0.9-0.6,2-0.9,3.1-1c0.8,10.5,0.9,21.1,0.1,31.7c1.2,0,2.3,0,3.5,0c0.5-7.3,2.7-14.5,6.5-20.7c0.2,0.7,0.3,1.4,0.5,2.1
						c4.1-4.1,8.1-8.1,12.2-12.2c-0.5,2.6-1.8,5-3.7,6.7c5.4-1.5,10.5-4.3,14.8-8c0,1.1-0.3,2.3-0.8,3.3c8.5-1.9,16.8-5,24.3-9.4
						c-1.5,1.9-3.3,3.4-5.4,4.7c1.7-0.6,3.4-1.1,5.1-1.7c-0.6,0.9-1.3,1.9-1.9,2.8c5.8-1.1,11.3-3.7,15.9-7.3c-0.3,1-0.6,2-1,2.9
						c5.6-2.8,10.7-6.4,15.3-10.6c1.9,2.9,4.4,5.3,7.2,7.3c0.7-1,1.5-1.9,2.2-2.9c1,5.5,3.8,10.7,8,14.4c0.1-0.8,0.2-1.5,0.3-2.3
						c5.8,8.2,11.5,20,12.1,30c1.6-0.3,3,0,4.2-0.1c-0.3-2.6,0.2-26.9,0.5-33.3C-181.6,251.4-183.9,246.4-184.6,243.4z"/>
					<path class="st16" d="M-258.9,221.3c-8.2,2.1-15.9,5.8-22.7,10.8c1.9-0.4,3.8-0.8,5.7-1.1c-6.7,3.4-12.8,7.8-18.2,13.1
						c1.5-0.4,3.1-0.7,4.6-1.1c-6.9,2.6-12.7,8.2-15.4,15.2c0.9-0.6,2-0.9,3.1-1c0.8,10.5,0.9,21.1,0.1,31.7c1.2,0,2.3,0,3.5,0
						c0.5-7.3,2.7-14.5,6.5-20.7c0.1,0.7,0.3,1.4,0.5,2.1c4.1-4.1,8.1-8.1,12.2-12.2c-0.5,2.6-1.8,5-3.7,6.7
						c5.4-1.5,10.5-4.3,14.8-8c0,1.1-0.3,2.3-0.8,3.3c8.5-1.9,16.8-5,24.3-9.4c-1.5,1.9-3.3,3.4-5.4,4.7c1.7-0.6,3.4-1.1,5.1-1.7
						c-0.6,0.9-1.3,1.9-1.9,2.8c1.1-0.2,2.2-0.5,3.3-0.8v-37.8c-6.9,0.1-13.8,1.3-20.3,3.4C-262.1,221.3-260.5,221.3-258.9,221.3z"
						/>
				</g>
			</g>
		</g>
	</g>
</g>
</svg>
