<?xml version="1.0" encoding="utf-8"?>
<!-- Generator: Adobe Illustrator 27.1.1, SVG Export Plug-In . SVG Version: 6.00 Build 0)  -->
<svg version="1.1" id="Layer_1" xmlns="http://www.w3.org/2000/svg" xmlns:xlink="http://www.w3.org/1999/xlink" x="0px" y="0px"
	 viewBox="0 0 231 237.7" style="enable-background:new 0 0 231 237.7;" xml:space="preserve">
<style type="text/css">
	.st0{fill:#9FA8DA;}
	.st1{fill:#C2185B;}
	.st2{clip-path:url(#SVGID_00000116933305047335268740000004570430225709045944_);}
	.st3{fill:#ECB888;}
	.st4{fill:#D89D6C;}
	.st5{fill:#880E4F;}
	.st6{fill:#9C8CD3;}
	.st7{fill:#CEBFF6;}
	.st8{fill:#FF7DAF;}
	.st9{fill:#E91F63;}
	.st10{fill:#FFFFFF;}
	.st11{fill:#EDD1DC;}
	.st12{fill:#231F20;}
	.st13{fill:#563E3B;}
	.st14{fill:#6D4C41;}
</style>
<g transform="matrix(1, 0, 0, 1, -525.5757446289062, -261.46051025390625)">
	<g>
		<ellipse class="st0" cx="641.1" cy="380.3" rx="105.6" ry="109.2"/>
		<path class="st1" d="M641.1,261.5c-30.9,0-59.8,12.4-81.6,34.9c-21.7,22.4-33.7,52.2-33.7,83.9s12,61.5,33.7,83.9
			c21.8,22.5,50.8,34.9,81.6,34.9c30.9,0,59.8-12.4,81.6-34.9c21.7-22.4,33.7-52.2,33.7-83.9s-12-61.5-33.7-83.9
			C700.9,273.9,671.9,261.5,641.1,261.5z M641.1,489.6c-58.3,0-105.6-48.9-105.6-109.2s47.3-109.2,105.6-109.2
			c58.3,0,105.6,48.9,105.6,109.2S699.4,489.6,641.1,489.6z"/>
	</g>
	<g>
		<g>
			<defs>
				<ellipse id="SVGID_1_" cx="641.2" cy="380.3" rx="105.9" ry="109.2"/>
			</defs>
			<clipPath id="SVGID_00000023981939643951136090000003444464206491754404_">
				<use xlink:href="#SVGID_1_"  style="overflow:visible;"/>
			</clipPath>
			<g style="clip-path:url(#SVGID_00000023981939643951136090000003444464206491754404_);">
				<g>
					<g>
						<path class="st3" d="M551.8,521.9L551.8,521.9L551.8,521.9C551.8,521.9,551.8,522,551.8,521.9L551.8,521.9l0,16.1
							c-1.7,2-2.8,5-2.8,8.4c0,5.9,3.3,10.7,7.4,10.7s7.4-4.8,7.4-10.7c0-3.4-1.1-6.4-2.8-8.4v-16.1H561
							c1.6-49.1,37.6-87.7,82.7-89.5v-11.6C593.7,422.4,553.9,465.7,551.8,521.9z"/>
						<path class="st4" d="M741.7,524.1L741.7,524.1c0-0.1,0-0.3,0-0.4v-1.6h-0.1c-2.1-56.3-42.8-100-93-101.3v11.6
							c46.4,1,83.2,40.3,83.7,91v14.8c-1.7,2-2.8,5-2.8,8.4c0,5.9,3.3,10.7,7.4,10.7c4.1,0,7.4-4.8,7.4-10.7c0-3.4-1.1-6.4-2.8-8.4
							L741.7,524.1L741.7,524.1z"/>
						<g>
							<g>
								<g>
									<path class="st4" d="M609.2,659.7c0.8,14.4,2,27.9,3.7,40.3h10.3c-1.7-12.4-3-25.9-3.7-40.3H609.2z"/>
									<path class="st3" d="M598,659.7c0.8,14.4,2,27.9,3.7,40.3h11.2c-1.7-12.4-3-25.9-3.7-40.3H598z"/>
								</g>
								<g>
									<path class="st5" d="M611,586.9c-1.6,15.9-2.5,33.1-2.5,51.1c0,11.8,0.4,23.3,1.1,34.4h11.6c-0.7-11-1.1-22.5-1.1-34.4
										c0-18,0.9-35.2,2.5-51.1H611z"/>
									<path class="st1" d="M599.5,586.9c-1.6,15.9-2.5,33.1-2.5,51.1c0,11.8,0.4,23.3,1.1,34.4h11.5c-0.7-11-1.1-22.5-1.1-34.4
										c0-18,0.9-35.2,2.5-51.1H599.5z"/>
								</g>
								<g>
									<g>
										<path class="st6" d="M609,688.6c-9.8,0-17.8,8.7-18.1,19.5h36.2C626.8,697.3,618.8,688.6,609,688.6z"/>
										<path class="st7" d="M590.9,708.1h17.7v-19.5C599,688.8,591.1,697.4,590.9,708.1z"/>
									</g>
								</g>
							</g>
							<g>
								<g>
									<path class="st4" d="M677.9,704.6h10.4c1.8-13,3.1-27.3,3.9-42.5h-10.4C681.1,677.3,679.7,691.6,677.9,704.6z"/>
									<path class="st3" d="M666.8,704.6h11.1c1.8-13,3.1-27.3,3.9-42.5h-11.1C670,677.3,668.6,691.6,666.8,704.6z"/>
								</g>
								<g>
									<path class="st5" d="M679.9,587.3c1.6,15.9,2.5,33.1,2.5,51.1c0,11.8-0.4,23.3-1.1,34.4h11.9c0.7-11,1.1-22.5,1.1-34.4
										c0-18-0.9-35.3-2.5-51.1H679.9z"/>
									<path class="st1" d="M668.6,587.3c1.6,15.9,2.5,33.1,2.5,51.1c0,11.8-0.4,23.3-1.1,34.4h11.3c0.7-11,1.1-22.5,1.1-34.4
										c0-18-0.9-35.3-2.5-51.1H668.6z"/>
								</g>
								<g>
									<g>
										<path class="st6" d="M681.9,688.6c-9.8,0-17.8,8.7-18.1,19.5H700C699.7,697.3,691.7,688.6,681.9,688.6z"/>
										<path class="st7" d="M663.8,708.1h17.7v-19.5C671.9,688.8,664.1,697.4,663.8,708.1z"/>
									</g>
								</g>
							</g>
						</g>
						<g>
							<path class="st8" d="M561.2,461.1h27.5c3.9-5.8-21.7,65.8-21.7,123.4c0,2.4,0,4.9,0.1,7.3h78.1V415.2
								c-8.1,0.5-15.8,3.5-23.1,8.6C597.8,425,576.2,439.2,561.2,461.1z"/>
							<path class="st9" d="M701.4,461l25.9-0.9c-14.2-19.9-34.1-34.8-55.9-36.3c-8.3-6.6-17.3-10.1-26.7-10.1c0,0-0.1,0-0.1,0
								v178.3H723c0-2.4,0.1-4.9,0.1-7.4C723.1,527.5,698.4,456.7,701.4,461z"/>
							<g>
								<g>
									<path class="st10" d="M580.8,577.7c-0.4,0-0.8,0.1-1.2,0.2c0.1-0.3,0.1-0.6,0.1-0.9c0-1.8-1.4-3.2-3.1-3.2
										c-1.7,0-3.1,1.4-3.1,3.2c0,0.3,0.1,0.6,0.1,0.9c-0.4-0.2-0.8-0.2-1.2-0.2c-1.7,0-3.1,1.4-3.1,3.2c0,1.3,0.8,2.4,1.9,2.9
										c-0.3,0.5-0.5,1.1-0.5,1.8c0,1.8,1.4,3.2,3.1,3.2c1.2,0,2.3-0.7,2.8-1.8c0.5,1,1.6,1.8,2.8,1.8c1.7,0,3.1-1.4,3.1-3.2
										c0-0.6-0.2-1.2-0.5-1.7c1.2-0.5,2-1.6,2-3C584,579.2,582.6,577.7,580.8,577.7z M576.6,585.1c-1.7,0-3.1-1.4-3.1-3.2
										s1.4-3.2,3.1-3.2c1.7,0,3.1,1.4,3.1,3.2S578.3,585.1,576.6,585.1z"/>
									<path class="st10" d="M600.2,577.7c-0.4,0-0.8,0.1-1.2,0.2c0.1-0.3,0.1-0.6,0.1-0.9c0-1.8-1.4-3.2-3.1-3.2
										c-1.7,0-3.1,1.4-3.1,3.2c0,0.3,0.1,0.6,0.1,0.9c-0.4-0.2-0.8-0.2-1.2-0.2c-1.7,0-3.1,1.4-3.1,3.2c0,1.3,0.8,2.4,1.9,2.9
										c-0.3,0.5-0.5,1.1-0.5,1.8c0,1.8,1.4,3.2,3.1,3.2c1.2,0,2.3-0.7,2.8-1.8c0.5,1,1.6,1.8,2.8,1.8c1.7,0,3.1-1.4,3.1-3.2
										c0-0.6-0.2-1.2-0.5-1.7c1.2-0.5,2-1.6,2-3C603.3,579.2,601.9,577.7,600.2,577.7z M595.9,585.1c-1.7,0-3.1-1.4-3.1-3.2
										s1.4-3.2,3.1-3.2c1.7,0,3.1,1.4,3.1,3.2S597.6,585.1,595.9,585.1z"/>
									<path class="st10" d="M619.5,577.7c-0.4,0-0.8,0.1-1.2,0.2c0.1-0.3,0.1-0.6,0.1-0.9c0-1.8-1.4-3.2-3.1-3.2
										c-1.7,0-3.1,1.4-3.1,3.2c0,0.3,0.1,0.6,0.1,0.9c-0.4-0.2-0.8-0.2-1.2-0.2c-1.7,0-3.1,1.4-3.1,3.2c0,1.3,0.8,2.4,1.9,2.9
										c-0.3,0.5-0.5,1.1-0.5,1.8c0,1.8,1.4,3.2,3.1,3.2c1.2,0,2.3-0.7,2.8-1.8c0.5,1,1.6,1.8,2.8,1.8c1.7,0,3.1-1.4,3.1-3.2
										c0-0.6-0.2-1.2-0.5-1.7c1.2-0.5,2-1.6,2-3C622.6,579.2,621.2,577.7,619.5,577.7z M615.2,585.1c-1.7,0-3.1-1.4-3.1-3.2
										s1.4-3.2,3.1-3.2c1.7,0,3.1,1.4,3.1,3.2S616.9,585.1,615.2,585.1z"/>
									<path class="st10" d="M638.8,577.7c-0.4,0-0.8,0.1-1.2,0.2c0.1-0.3,0.1-0.6,0.1-0.9c0-1.8-1.4-3.2-3.1-3.2
										c-1.7,0-3.1,1.4-3.1,3.2c0,0.3,0.1,0.6,0.1,0.9c-0.4-0.2-0.8-0.2-1.2-0.2c-1.7,0-3.1,1.4-3.1,3.2c0,1.3,0.8,2.4,1.9,2.9
										c-0.3,0.5-0.5,1.1-0.5,1.8c0,1.8,1.4,3.2,3.1,3.2c1.2,0,2.3-0.7,2.8-1.8c0.5,1,1.6,1.8,2.8,1.8c1.7,0,3.1-1.4,3.1-3.2
										c0-0.6-0.2-1.2-0.5-1.7c1.2-0.5,2-1.6,2-3C641.9,579.2,640.5,577.7,638.8,577.7z M634.5,585.1c-1.7,0-3.1-1.4-3.1-3.2
										s1.4-3.2,3.1-3.2c1.7,0,3.1,1.4,3.1,3.2C637.6,583.7,636.2,585.1,634.5,585.1z"/>
									<path class="st11" d="M658.1,577.7c-0.4,0-0.8,0.1-1.2,0.2c0.1-0.3,0.1-0.6,0.1-0.9c0-1.8-1.4-3.2-3.1-3.2
										c-1.7,0-3.1,1.4-3.1,3.2c0,0.3,0.1,0.6,0.1,0.9c-0.4-0.2-0.8-0.2-1.2-0.2c-1.7,0-3.1,1.4-3.1,3.2c0,1.3,0.8,2.4,1.9,2.9
										c-0.3,0.5-0.5,1.1-0.5,1.8c0,1.8,1.4,3.2,3.1,3.2c1.2,0,2.3-0.7,2.8-1.8c0.5,1,1.6,1.8,2.8,1.8c1.7,0,3.1-1.4,3.1-3.2
										c0-0.6-0.2-1.2-0.5-1.7c1.2-0.5,2-1.6,2-3C661.2,579.2,659.8,577.7,658.1,577.7z M653.8,585.1c-1.7,0-3.1-1.4-3.1-3.2
										s1.4-3.2,3.1-3.2c1.7,0,3.1,1.4,3.1,3.2S655.5,585.1,653.8,585.1z"/>
									<path class="st11" d="M677.4,577.7c-0.4,0-0.8,0.1-1.2,0.2c0.1-0.3,0.1-0.6,0.1-0.9c0-1.8-1.4-3.2-3.1-3.2
										c-1.7,0-3.1,1.4-3.1,3.2c0,0.3,0.1,0.6,0.1,0.9c-0.4-0.2-0.8-0.2-1.2-0.2c-1.7,0-3.1,1.4-3.1,3.2c0,1.3,0.8,2.4,1.9,2.9
										c-0.3,0.5-0.5,1.1-0.5,1.8c0,1.8,1.4,3.2,3.1,3.2c1.2,0,2.3-0.7,2.8-1.8c0.5,1,1.6,1.8,2.8,1.8c1.7,0,3.1-1.4,3.1-3.2
										c0-0.6-0.2-1.2-0.5-1.7c1.2-0.5,2-1.6,2-3C680.5,579.2,679.1,577.7,677.4,577.7z M673.1,585.1c-1.7,0-3.1-1.4-3.1-3.2
										s1.4-3.2,3.1-3.2c1.7,0,3.1,1.4,3.1,3.2S674.8,585.1,673.1,585.1z"/>
									<path class="st11" d="M696.7,577.7c-0.4,0-0.8,0.1-1.2,0.2c0.1-0.3,0.1-0.6,0.1-0.9c0-1.8-1.4-3.2-3.1-3.2
										s-3.1,1.4-3.1,3.2c0,0.3,0.1,0.6,0.1,0.9c-0.4-0.2-0.8-0.2-1.2-0.2c-1.7,0-3.1,1.4-3.1,3.2c0,1.3,0.8,2.4,1.9,2.9
										c-0.3,0.5-0.5,1.1-0.5,1.8c0,1.8,1.4,3.2,3.1,3.2c1.2,0,2.3-0.7,2.8-1.8c0.5,1,1.6,1.8,2.8,1.8c1.7,0,3.1-1.4,3.1-3.2
										c0-0.6-0.2-1.2-0.5-1.7c1.2-0.5,2-1.6,2-3C699.8,579.2,698.4,577.7,696.7,577.7z M692.4,585.1c-1.7,0-3.1-1.4-3.1-3.2
										s1.4-3.2,3.1-3.2c1.7,0,3.1,1.4,3.1,3.2S694.1,585.1,692.4,585.1z"/>
									<path class="st11" d="M716,577.7c-0.4,0-0.8,0.1-1.2,0.2c0.1-0.3,0.1-0.6,0.1-0.9c0-1.8-1.4-3.2-3.1-3.2
										c-1.7,0-3.1,1.4-3.1,3.2c0,0.3,0.1,0.6,0.1,0.9c-0.4-0.2-0.8-0.2-1.2-0.2c-1.7,0-3.1,1.4-3.1,3.2c0,1.3,0.8,2.4,1.9,2.9
										c-0.3,0.5-0.5,1.1-0.5,1.8c0,1.8,1.4,3.2,3.1,3.2c1.2,0,2.3-0.7,2.8-1.8c0.5,1,1.6,1.8,2.8,1.8c1.7,0,3.1-1.4,3.1-3.2
										c0-0.6-0.2-1.2-0.5-1.7c1.2-0.5,2-1.6,2-3C719.1,579.2,717.7,577.7,716,577.7z M711.7,585.1c-1.7,0-3.1-1.4-3.1-3.2
										s1.4-3.2,3.1-3.2s3.1,1.4,3.1,3.2S713.5,585.1,711.7,585.1z"/>
								</g>
								<g>
									<g>
										<path class="st10" d="M600.7,472.1c-0.4,0-0.8,0.1-1.2,0.2c0.1-0.3,0.1-0.6,0.1-0.9c0-1.8-1.4-3.2-3.1-3.2
											c-1.7,0-3.1,1.4-3.1,3.2c0,0.3,0.1,0.6,0.1,0.9c-0.4-0.2-0.8-0.2-1.2-0.2c-1.7,0-3.1,1.4-3.1,3.2c0,1.3,0.8,2.4,1.9,2.9
											c-0.3,0.5-0.5,1.1-0.5,1.8c0,1.8,1.4,3.2,3.1,3.2c1.2,0,2.3-0.7,2.8-1.8c0.5,1,1.6,1.8,2.8,1.8c1.7,0,3.1-1.4,3.1-3.2
											c0-0.6-0.2-1.2-0.5-1.7c1.2-0.5,2-1.6,2-3C603.9,473.6,602.5,472.1,600.7,472.1z M596.5,479.6c-1.7,0-3.1-1.4-3.1-3.2
											c0-1.8,1.4-3.2,3.1-3.2c1.7,0,3.1,1.4,3.1,3.2C599.6,478.1,598.2,479.6,596.5,479.6z"/>
										<path class="st10" d="M620.1,472.1c-0.4,0-0.8,0.1-1.2,0.2c0.1-0.3,0.1-0.6,0.1-0.9c0-1.8-1.4-3.2-3.1-3.2
											c-1.7,0-3.1,1.4-3.1,3.2c0,0.3,0.1,0.6,0.1,0.9c-0.4-0.2-0.8-0.2-1.2-0.2c-1.7,0-3.1,1.4-3.1,3.2c0,1.3,0.8,2.4,1.9,2.9
											c-0.3,0.5-0.5,1.1-0.5,1.8c0,1.8,1.4,3.2,3.1,3.2c1.2,0,2.3-0.7,2.8-1.8c0.5,1,1.6,1.8,2.8,1.8c1.7,0,3.1-1.4,3.1-3.2
											c0-0.6-0.2-1.2-0.5-1.7c1.2-0.5,2-1.6,2-3C623.2,473.6,621.8,472.1,620.1,472.1z M615.8,479.6c-1.7,0-3.1-1.4-3.1-3.2
											c0-1.8,1.4-3.2,3.1-3.2s3.1,1.4,3.1,3.2C618.9,478.1,617.5,479.6,615.8,479.6z"/>
										<path class="st10" d="M639.4,472.1c-0.4,0-0.8,0.1-1.2,0.2c0.1-0.3,0.1-0.6,0.1-0.9c0-1.8-1.4-3.2-3.1-3.2
											c-1.7,0-3.1,1.4-3.1,3.2c0,0.3,0.1,0.6,0.1,0.9c-0.4-0.2-0.8-0.2-1.2-0.2c-1.7,0-3.1,1.4-3.1,3.2c0,1.3,0.8,2.4,1.9,2.9
											c-0.3,0.5-0.5,1.1-0.5,1.8c0,1.8,1.4,3.2,3.1,3.2c1.2,0,2.3-0.7,2.8-1.8c0.5,1,1.6,1.8,2.8,1.8c1.7,0,3.1-1.4,3.1-3.2
											c0-0.6-0.2-1.2-0.5-1.7c1.2-0.5,2-1.6,2-3C642.5,473.6,641.1,472.1,639.4,472.1z M635.1,479.6c-1.7,0-3.1-1.4-3.1-3.2
											c0-1.8,1.4-3.2,3.1-3.2c1.7,0,3.1,1.4,3.1,3.2C638.2,478.1,636.8,479.6,635.1,479.6z"/>
										<path class="st11" d="M658.7,472.1c-0.4,0-0.8,0.1-1.2,0.2c0.1-0.3,0.1-0.6,0.1-0.9c0-1.8-1.4-3.2-3.1-3.2
											c-1.7,0-3.1,1.4-3.1,3.2c0,0.3,0.1,0.6,0.1,0.9c-0.4-0.2-0.8-0.2-1.2-0.2c-1.7,0-3.1,1.4-3.1,3.2c0,1.3,0.8,2.4,1.9,2.9
											c-0.3,0.5-0.5,1.1-0.5,1.8c0,1.8,1.4,3.2,3.1,3.2c1.2,0,2.3-0.7,2.8-1.8c0.5,1,1.6,1.8,2.8,1.8c1.7,0,3.1-1.4,3.1-3.2
											c0-0.6-0.2-1.2-0.5-1.7c1.2-0.5,2-1.6,2-3C661.8,473.6,660.4,472.1,658.7,472.1z M654.4,479.6c-1.7,0-3.1-1.4-3.1-3.2
											c0-1.8,1.4-3.2,3.1-3.2c1.7,0,3.1,1.4,3.1,3.2C657.5,478.1,656.1,479.6,654.4,479.6z"/>
										<path class="st11" d="M678,472.1c-0.4,0-0.8,0.1-1.2,0.2c0.1-0.3,0.1-0.6,0.1-0.9c0-1.8-1.4-3.2-3.1-3.2
											c-1.7,0-3.1,1.4-3.1,3.2c0,0.3,0.1,0.6,0.1,0.9c-0.4-0.2-0.8-0.2-1.2-0.2c-1.7,0-3.1,1.4-3.1,3.2c0,1.3,0.8,2.4,1.9,2.9
											c-0.3,0.5-0.5,1.1-0.5,1.8c0,1.8,1.4,3.2,3.1,3.2c1.2,0,2.3-0.7,2.8-1.8c0.5,1,1.6,1.8,2.8,1.8c1.7,0,3.1-1.4,3.1-3.2
											c0-0.6-0.2-1.2-0.5-1.7c1.2-0.5,2-1.6,2-3C681.1,473.6,679.7,472.1,678,472.1z M673.7,479.6c-1.7,0-3.1-1.4-3.1-3.2
											c0-1.8,1.4-3.2,3.1-3.2c1.7,0,3.1,1.4,3.1,3.2C676.8,478.1,675.4,479.6,673.7,479.6z"/>
										<path class="st11" d="M697.3,472.1c-0.4,0-0.8,0.1-1.2,0.2c0.1-0.3,0.1-0.6,0.1-0.9c0-1.8-1.4-3.2-3.1-3.2
											s-3.1,1.4-3.1,3.2c0,0.3,0.1,0.6,0.1,0.9c-0.4-0.2-0.8-0.2-1.2-0.2c-1.7,0-3.1,1.4-3.1,3.2c0,1.3,0.8,2.4,1.9,2.9
											c-0.3,0.5-0.5,1.1-0.5,1.8c0,1.8,1.4,3.2,3.1,3.2c1.2,0,2.3-0.7,2.8-1.8c0.5,1,1.6,1.8,2.8,1.8c1.7,0,3.1-1.4,3.1-3.2
											c0-0.6-0.2-1.2-0.5-1.7c1.2-0.5,2-1.6,2-3C700.4,473.6,699,472.1,697.3,472.1z M693,479.6c-1.7,0-3.1-1.4-3.1-3.2
											c0-1.8,1.4-3.2,3.1-3.2c1.7,0,3.1,1.4,3.1,3.2C696.1,478.1,694.7,479.6,693,479.6z"/>
									</g>
									<polygon class="st11" points="588.9,460.9 588.1,465.4 702.2,465.3 701.4,461 									"/>
									<polygon class="st10" points="588.1,465.4 644.7,465.4 644.7,460.9 588.9,460.9 									"/>
								</g>
							</g>
						</g>
						<g>
							<g>
								<ellipse class="st3" cx="645.1" cy="363.2" rx="53.7" ry="65.5"/>
								<path class="st4" d="M645.1,297.7c-0.1,0-0.3,0-0.4,0v131c0.1,0,0.3,0,0.4,0c29.6,0,53.7-29.3,53.7-65.5
									C698.7,327,674.7,297.7,645.1,297.7z"/>
							</g>
							<g>
								<g>
									<path class="st12" d="M655.9,356.9c-2.6,0-4.7,2.2-4.7,4.9c0,2.7,2.1,4.9,4.7,4.9c2.6,0,4.7-2.2,4.7-4.9
										C660.6,359.1,658.5,356.9,655.9,356.9z"/>
									<path class="st12" d="M659.2,344c-3.2,0-6,1-8.1,2.7v4.1c1.9-2.7,16.3-3.4,18.4-1.6C667.8,346.1,663.8,344,659.2,344z"/>
								</g>
								<g>
									<path class="st12" d="M633.3,357.2c-2.6,0-4.7,2.2-4.7,4.9s2.1,4.9,4.7,4.9c2.6,0,4.7-2.2,4.7-4.9
										C638,359.4,635.9,357.2,633.3,357.2z"/>
									<path class="st12" d="M619.6,348.9c2.1-1.8,16.4-1.2,18.4,1.6v-4.1c-2.1-1.6-4.9-2.7-8.1-2.7
										C625.4,343.7,621.4,345.8,619.6,348.9z"/>
								</g>
								<path class="st1" d="M653.6,391c-1.6-0.7-3.1-1.7-4.7-2.1c-1.6-0.4-3.5-0.1-4.6,1.5h-0.3c-1-1.6-2.9-2-4.6-1.5
									c-1.6,0.4-3.1,1.4-4.7,2.1c-2.2,0.9-4.6,1.1-6.9,0.5c3.9,5.9,10.2,9.2,16.3,8.4c6.1,0.8,12.4-2.5,16.3-8.4
									C658.3,392.1,655.9,392,653.6,391z"/>
							</g>
							<path class="st13" d="M682.5,306.6c-3-1.7-7-2.1-9.8-0.1c1.5-5.7-1.9-11.9-6.7-15.2c-4.8-3.3-10.7-4.3-16.4-5.2
								c-4.4-0.6-8.9-1.2-13.3-1c-5.8,0.3-11.5,2-16.9,4.3c-16.5,7-36,30.5-38.3,48.7c-7.8,60.9,24.4,72,29.5,77.8
								c-2-18.8,2.9-36.5,11.2-53.4c8.8-17.9,26.7-31,42.4-42.8c4.5,2.2,11.2,10.1,19.7,30.4c9.4,22.5,10.7,34.9,7.1,44.6
								c9.4-9.7,19.7-21.7,14.7-52C701.1,315.5,685.6,308.3,682.5,306.6z"/>
							<path class="st14" d="M636.2,285.1c-5.8,0.3-11.5,2-16.9,4.3c-16.5,7-36,30.5-38.3,48.7c-7.8,60.9,24.4,72,29.5,77.8
								c-2-18.8,2.9-36.5,11.2-53.4c5.2-10.6,13.6-19.5,22.8-27.4v-49.6C641.7,285.1,638.9,284.9,636.2,285.1z"/>
						</g>
					</g>
				</g>
			</g>
		</g>
	</g>
</g>
</svg>
