<?xml version="1.0" encoding="utf-8"?>
<svg viewBox="10.747 10.359 231.477 238.878" width="231.0259" height="447.529" xmlns="http://www.w3.org/2000/svg">
  <g transform="matrix(1, 0, 0, 1, -525.5757446289062, -261.46051025390625)">
    <g>
      <ellipse style="fill:#9FA8DA;" cx="651.836" cy="390.921" rx="105.846" ry="109.434"/>
      <path style="fill:#C2185B;" d="M651.836,271.819c-30.916,0-59.964,12.43-81.793,34.999c-21.745,22.482-33.72,52.35-33.72,84.102 s11.975,61.621,33.72,84.102c21.829,22.569,50.877,34.999,81.793,34.999c30.916,0,59.964-12.43,81.793-34.999 c21.745-22.482,33.72-52.35,33.72-84.102s-11.975-61.621-33.72-84.102C711.8,284.249,682.752,271.819,651.836,271.819z M651.836,500.355c-58.457,0-105.846-48.995-105.846-109.434s47.389-109.434,105.846-109.434 c58.457,0,105.846,48.995,105.846,109.434S710.293,500.355,651.836,500.355z"/>
    </g>
    <g>
      <defs>
        <ellipse id="SVGID_00000093863070109728862970000001487533130175168142_" cx="652.027" cy="390.9" rx="106.138" ry="109.378"/>
      </defs>
      <clipPath id="SVGID_00000017476722967388590110000009236737253237436859_">
        <ellipse cx="652.027" cy="390.9" rx="106.138" ry="109.378" style="overflow: visible;"/>
      </clipPath>
      <g style="clip-path:url(#SVGID_00000017476722967388590110000009236737253237436859_);">
        <g>
          <g>
            <path style="fill:#ECB888;" d="M562.374,532.753L562.374,532.753l-0.001,0.021c-0.001,0.026-0.002,0.052-0.003,0.079l0.003,0 v16.025c-1.694,1.974-2.779,4.996-2.779,8.386c0,5.946,3.334,10.767,7.447,10.767c4.113,0,7.447-4.82,7.447-10.767 c0-3.39-1.085-6.412-2.779-8.386v-16.125h-0.112c1.586-49.216,37.658-87.827,82.836-89.642v-11.656 C604.42,433.097,564.463,476.482,562.374,532.753z"/>
            <path style="fill:#D89D6C;" d="M752.688,535.008l0.012,0c-0.003-0.145-0.008-0.289-0.012-0.434v-1.641h-0.052 c-2.149-56.424-42.913-100.214-93.183-101.496v11.63c46.534,1.024,83.35,40.417,83.899,91.193v14.797 c-1.694,1.974-2.779,4.996-2.779,8.386c0,5.946,3.334,10.767,7.447,10.767c4.113,0,7.447-4.82,7.447-10.767 c0-3.39-1.085-6.412-2.779-8.386V535.008z"/>
            <g>
              <g>
                <g>
                  <path style="fill:#D89D6C;" d="M619.893,670.79c0.754,14.384,2.032,27.963,3.749,40.38h10.33 c-1.716-12.417-2.995-25.996-3.749-40.38H619.893z"/>
                  <path style="fill:#ECB888;" d="M608.657,670.79c0.754,14.384,2.032,27.963,3.749,40.38h11.235 c-1.716-12.417-2.995-25.996-3.749-40.38H608.657z"/>
                </g>
                <g>
                  <path style="fill:#880E4F;" d="M621.744,597.9c-1.588,15.904-2.46,33.172-2.46,51.222c0,11.868,0.381,23.392,1.09,34.419 h11.636c-0.709-11.027-1.09-22.551-1.09-34.419c0-18.05,0.871-35.318,2.46-51.222H621.744z"/>
                  <path style="fill:#C2185B;" d="M610.23,597.9c-1.588,15.904-2.459,33.172-2.459,51.222c0,11.868,0.381,23.392,1.09,34.419 h11.514c-0.709-11.027-1.09-22.551-1.09-34.419c0-18.05,0.871-35.318,2.46-51.222H610.23z"/>
                </g>
                <g>
                  <g>
                    <path style="fill:#9C8CD3;" d="M619.709,699.832c-9.862,0-17.879,8.693-18.121,19.516h36.241 C637.588,708.525,629.571,699.832,619.709,699.832z"/>
                    <path style="fill:#CEBFF6;" d="M601.589,719.347h17.779v-19.511C609.663,700.034,601.827,708.65,601.589,719.347z"/>
                  </g>
                </g>
              </g>
              <g>
                <g>
                  <path style="fill:#D89D6C;" d="M688.787,715.82h10.449c1.804-13.049,3.124-27.382,3.86-42.582h-10.449 C691.911,688.438,690.591,702.771,688.787,715.82z"/>
                  <path style="fill:#ECB888;" d="M677.671,715.82h11.117c1.804-13.049,3.124-27.382,3.86-42.582H681.53 C680.794,688.439,679.474,702.771,677.671,715.82z"/>
                </g>
                <g>
                  <path style="fill:#880E4F;" d="M690.726,598.267c1.588,15.904,2.459,33.172,2.459,51.222 c0,11.868-0.381,23.393-1.09,34.419h11.874c0.709-11.027,1.09-22.551,1.09-34.419c0-18.05-0.871-35.319-2.459-51.222 H690.726z"/>
                  <path style="fill:#C2185B;" d="M679.449,598.267c1.588,15.904,2.46,33.172,2.46,51.222c0,11.868-0.381,23.393-1.09,34.419 h11.276c0.71-11.027,1.09-22.551,1.09-34.419c0-18.05-0.871-35.319-2.459-51.222H679.449z"/>
                </g>
                <g>
                  <g>
                    <path style="fill:#9C8CD3;" d="M692.765,699.832c-9.862,0-17.879,8.693-18.121,19.516h36.241 C710.644,708.525,702.627,699.832,692.765,699.832z"/>
                    <path style="fill:#CEBFF6;" d="M674.644,719.347h17.779v-19.511C682.718,700.034,674.883,708.65,674.644,719.347z"/>
                  </g>
                </g>
              </g>
            </g>
            <g>
              <path style="fill:#FF7DAF;" d="M571.808,471.885h27.509c3.883-5.793-21.73,65.913-21.73,123.6 c0,2.45,0.026,4.887,0.075,7.312h78.216v-176.91c-8.073,0.517-15.847,3.522-23.156,8.659 C608.53,435.666,586.887,449.862,571.808,471.885z"/>
              <path style="fill:#E91F63;" d="M712.314,471.7l25.956-0.922c-14.237-19.917-34.141-34.904-56.032-36.42 c-8.336-6.576-17.327-10.164-26.703-10.164c-0.041,0-0.081,0.002-0.122,0.002v178.602h78.552 c0.047-2.447,0.073-4.906,0.073-7.378C734.037,538.382,709.303,467.397,712.314,471.7z"/>
              <g>
                <g>
                  <path style="fill:#FFFFFF;" d="M591.511,588.679c-0.416,0-0.811,0.088-1.174,0.239c0.074-0.276,0.127-0.561,0.127-0.862 c0-1.789-1.407-3.239-3.143-3.239c-1.736,0-3.143,1.45-3.143,3.239c0,0.301,0.053,0.586,0.127,0.862 c-0.363-0.151-0.759-0.239-1.174-0.239c-1.736,0-3.143,1.45-3.143,3.239c0,1.314,0.762,2.44,1.854,2.948 c-0.33,0.512-0.524,1.125-0.524,1.786c0,1.789,1.407,3.239,3.143,3.239c1.215,0,2.258-0.718,2.781-1.759 c0.523,1.04,1.565,1.759,2.781,1.759c1.736,0,3.143-1.45,3.143-3.239c0-0.638-0.185-1.228-0.494-1.729 c1.161-0.476,1.985-1.639,1.985-3.005C594.654,590.129,593.247,588.679,591.511,588.679z M587.24,596.112 c-1.736,0-3.143-1.45-3.143-3.239c0-1.789,1.407-3.239,3.143-3.239s3.143,1.45,3.143,3.239 C590.383,594.662,588.975,596.112,587.24,596.112z"/>
                  <path style="fill:#FFFFFF;" d="M610.854,588.679c-0.416,0-0.811,0.088-1.175,0.239c0.074-0.276,0.127-0.561,0.127-0.862 c0-1.789-1.407-3.239-3.143-3.239c-1.736,0-3.143,1.45-3.143,3.239c0,0.301,0.052,0.586,0.127,0.862 c-0.363-0.151-0.759-0.239-1.175-0.239c-1.736,0-3.143,1.45-3.143,3.239c0,1.314,0.763,2.44,1.854,2.948 c-0.33,0.512-0.524,1.125-0.524,1.786c0,1.789,1.407,3.239,3.143,3.239c1.215,0,2.258-0.718,2.781-1.759 c0.523,1.04,1.565,1.759,2.78,1.759c1.736,0,3.143-1.45,3.143-3.239c0-0.638-0.185-1.228-0.493-1.729 c1.161-0.476,1.984-1.639,1.984-3.005C613.997,590.129,612.59,588.679,610.854,588.679z M606.582,596.112 c-1.736,0-3.143-1.45-3.143-3.239c0-1.789,1.407-3.239,3.143-3.239c1.736,0,3.143,1.45,3.143,3.239 C609.725,594.662,608.318,596.112,606.582,596.112z"/>
                  <path style="fill:#FFFFFF;" d="M630.196,588.679c-0.416,0-0.811,0.088-1.175,0.239c0.074-0.276,0.127-0.561,0.127-0.862 c0-1.789-1.407-3.239-3.143-3.239c-1.736,0-3.143,1.45-3.143,3.239c0,0.301,0.052,0.586,0.127,0.862 c-0.363-0.151-0.758-0.239-1.175-0.239c-1.736,0-3.143,1.45-3.143,3.239c0,1.314,0.763,2.44,1.854,2.948 c-0.33,0.512-0.524,1.125-0.524,1.786c0,1.789,1.407,3.239,3.143,3.239c1.215,0,2.257-0.718,2.78-1.759 c0.523,1.04,1.565,1.759,2.781,1.759c1.736,0,3.143-1.45,3.143-3.239c0-0.638-0.185-1.228-0.493-1.729 c1.161-0.476,1.984-1.639,1.984-3.005C633.34,590.129,631.932,588.679,630.196,588.679z M625.925,596.112 c-1.736,0-3.143-1.45-3.143-3.239c0-1.789,1.407-3.239,3.143-3.239c1.736,0,3.143,1.45,3.143,3.239 C629.068,594.662,627.661,596.112,625.925,596.112z"/>
                  <path style="fill:#FFFFFF;" d="M649.539,588.679c-0.416,0-0.811,0.088-1.175,0.239c0.074-0.276,0.127-0.561,0.127-0.862 c0-1.789-1.407-3.239-3.143-3.239c-1.736,0-3.143,1.45-3.143,3.239c0,0.301,0.053,0.586,0.127,0.862 c-0.363-0.151-0.759-0.239-1.175-0.239c-1.736,0-3.143,1.45-3.143,3.239c0,1.314,0.763,2.44,1.854,2.948 c-0.33,0.512-0.524,1.125-0.524,1.786c0,1.789,1.407,3.239,3.143,3.239c1.215,0,2.258-0.718,2.78-1.759 c0.523,1.04,1.565,1.759,2.781,1.759c1.736,0,3.143-1.45,3.143-3.239c0-0.638-0.185-1.228-0.494-1.729 c1.161-0.476,1.985-1.639,1.985-3.005C652.682,590.129,651.275,588.679,649.539,588.679z M645.267,596.112 c-1.736,0-3.143-1.45-3.143-3.239c0-1.789,1.407-3.239,3.143-3.239c1.736,0,3.143,1.45,3.143,3.239 C648.411,594.662,647.003,596.112,645.267,596.112z"/>
                  <path style="fill:#EDD1DC;" d="M668.882,588.679c-0.416,0-0.811,0.088-1.175,0.239c0.074-0.276,0.127-0.561,0.127-0.862 c0-1.789-1.407-3.239-3.143-3.239s-3.143,1.45-3.143,3.239c0,0.301,0.052,0.586,0.127,0.862 c-0.363-0.151-0.759-0.239-1.175-0.239c-1.736,0-3.143,1.45-3.143,3.239c0,1.314,0.763,2.44,1.854,2.948 c-0.33,0.512-0.524,1.125-0.524,1.786c0,1.789,1.407,3.239,3.143,3.239c1.215,0,2.257-0.718,2.78-1.759 c0.523,1.04,1.565,1.759,2.781,1.759c1.736,0,3.143-1.45,3.143-3.239c0-0.638-0.185-1.228-0.493-1.729 c1.161-0.476,1.984-1.639,1.984-3.005C672.025,590.129,670.618,588.679,668.882,588.679z M664.61,596.112 c-1.736,0-3.143-1.45-3.143-3.239c0-1.789,1.407-3.239,3.143-3.239c1.736,0,3.143,1.45,3.143,3.239 C667.753,594.662,666.346,596.112,664.61,596.112z"/>
                  <path style="fill:#EDD1DC;" d="M688.224,588.679c-0.416,0-0.811,0.088-1.175,0.239c0.074-0.276,0.127-0.561,0.127-0.862 c0-1.789-1.407-3.239-3.143-3.239s-3.143,1.45-3.143,3.239c0,0.301,0.053,0.586,0.127,0.862 c-0.363-0.151-0.758-0.239-1.174-0.239c-1.736,0-3.143,1.45-3.143,3.239c0,1.314,0.762,2.44,1.854,2.948 c-0.33,0.512-0.524,1.125-0.524,1.786c0,1.789,1.407,3.239,3.143,3.239c1.215,0,2.258-0.718,2.781-1.759 c0.523,1.04,1.565,1.759,2.781,1.759c1.736,0,3.143-1.45,3.143-3.239c0-0.638-0.185-1.228-0.494-1.729 c1.161-0.476,1.984-1.639,1.984-3.005C691.368,590.129,689.96,588.679,688.224,588.679z M683.953,596.112 c-1.736,0-3.143-1.45-3.143-3.239c0-1.789,1.407-3.239,3.143-3.239c1.736,0,3.143,1.45,3.143,3.239 C687.096,594.662,685.689,596.112,683.953,596.112z"/>
                  <path style="fill:#EDD1DC;" d="M707.567,588.679c-0.416,0-0.811,0.088-1.174,0.239c0.074-0.276,0.127-0.561,0.127-0.862 c0-1.789-1.407-3.239-3.143-3.239c-1.736,0-3.143,1.45-3.143,3.239c0,0.301,0.053,0.586,0.127,0.862 c-0.363-0.151-0.759-0.239-1.174-0.239c-1.736,0-3.143,1.45-3.143,3.239c0,1.314,0.763,2.44,1.854,2.948 c-0.33,0.512-0.524,1.125-0.524,1.786c0,1.789,1.407,3.239,3.143,3.239c1.215,0,2.258-0.718,2.781-1.759 c0.523,1.04,1.565,1.759,2.781,1.759c1.736,0,3.143-1.45,3.143-3.239c0-0.638-0.185-1.228-0.494-1.729 c1.161-0.476,1.984-1.639,1.984-3.005C710.71,590.129,709.303,588.679,707.567,588.679z M703.296,596.112 c-1.736,0-3.143-1.45-3.143-3.239c0-1.789,1.407-3.239,3.143-3.239s3.143,1.45,3.143,3.239 C706.439,594.662,705.031,596.112,703.296,596.112z"/>
                  <path style="fill:#EDD1DC;" d="M726.91,588.679c-0.416,0-0.811,0.088-1.174,0.239c0.074-0.276,0.127-0.561,0.127-0.862 c0-1.789-1.407-3.239-3.143-3.239s-3.143,1.45-3.143,3.239c0,0.301,0.052,0.586,0.127,0.862 c-0.363-0.151-0.759-0.239-1.175-0.239c-1.736,0-3.143,1.45-3.143,3.239c0,1.314,0.763,2.44,1.854,2.948 c-0.33,0.512-0.524,1.125-0.524,1.786c0,1.789,1.407,3.239,3.143,3.239c1.215,0,2.258-0.718,2.781-1.759 c0.523,1.04,1.565,1.759,2.78,1.759c1.736,0,3.143-1.45,3.143-3.239c0-0.638-0.185-1.228-0.494-1.729 c1.161-0.476,1.984-1.639,1.984-3.005C730.053,590.129,728.646,588.679,726.91,588.679z M722.638,596.112 c-1.736,0-3.143-1.45-3.143-3.239c0-1.789,1.407-3.239,3.143-3.239c1.736,0,3.143,1.45,3.143,3.239 C725.781,594.662,724.374,596.112,722.638,596.112z"/>
                </g>
                <g>
                  <g>
                    <path style="fill:#FFFFFF;" d="M611.45,482.917c-0.416,0-0.811,0.088-1.175,0.239c0.074-0.276,0.127-0.561,0.127-0.862 c0-1.789-1.407-3.239-3.143-3.239c-1.736,0-3.143,1.45-3.143,3.239c0,0.301,0.053,0.586,0.127,0.862 c-0.363-0.151-0.759-0.239-1.174-0.239c-1.736,0-3.143,1.45-3.143,3.239c0,1.314,0.762,2.44,1.854,2.948 c-0.33,0.512-0.524,1.126-0.524,1.786c0,1.789,1.407,3.239,3.143,3.239c1.215,0,2.258-0.719,2.781-1.759 c0.523,1.04,1.565,1.759,2.781,1.759c1.736,0,3.143-1.45,3.143-3.239c0-0.638-0.185-1.228-0.494-1.729 c1.161-0.476,1.985-1.639,1.985-3.005C614.594,484.367,613.186,482.917,611.45,482.917z M607.179,490.35 c-1.736,0-3.143-1.45-3.143-3.239c0-1.789,1.407-3.239,3.143-3.239s3.143,1.45,3.143,3.239 C610.322,488.9,608.915,490.35,607.179,490.35z"/>
                    <path style="fill:#FFFFFF;" d="M630.793,482.917c-0.416,0-0.811,0.088-1.174,0.239c0.074-0.276,0.127-0.561,0.127-0.862 c0-1.789-1.407-3.239-3.143-3.239s-3.143,1.45-3.143,3.239c0,0.301,0.053,0.586,0.127,0.862 c-0.363-0.151-0.759-0.239-1.174-0.239c-1.736,0-3.143,1.45-3.143,3.239c0,1.314,0.763,2.44,1.854,2.948 c-0.33,0.512-0.524,1.126-0.524,1.786c0,1.789,1.407,3.239,3.143,3.239c1.215,0,2.258-0.719,2.781-1.759 c0.523,1.04,1.565,1.759,2.78,1.759c1.736,0,3.143-1.45,3.143-3.239c0-0.638-0.185-1.228-0.493-1.729 c1.161-0.476,1.984-1.639,1.984-3.005C633.936,484.367,632.529,482.917,630.793,482.917z M626.522,490.35 c-1.736,0-3.143-1.45-3.143-3.239c0-1.789,1.407-3.239,3.143-3.239c1.736,0,3.143,1.45,3.143,3.239 C629.665,488.9,628.258,490.35,626.522,490.35z"/>
                    <path style="fill:#FFFFFF;" d="M650.136,482.917c-0.416,0-0.811,0.088-1.175,0.239c0.074-0.276,0.127-0.561,0.127-0.862 c0-1.789-1.407-3.239-3.143-3.239c-1.736,0-3.143,1.45-3.143,3.239c0,0.301,0.053,0.586,0.127,0.862 c-0.363-0.151-0.759-0.239-1.175-0.239c-1.736,0-3.143,1.45-3.143,3.239c0,1.314,0.763,2.44,1.854,2.948 c-0.33,0.512-0.524,1.126-0.524,1.786c0,1.789,1.407,3.239,3.143,3.239c1.215,0,2.258-0.719,2.781-1.759 c0.523,1.04,1.565,1.759,2.78,1.759c1.736,0,3.143-1.45,3.143-3.239c0-0.638-0.185-1.228-0.493-1.729 c1.161-0.476,1.984-1.639,1.984-3.005C653.279,484.367,651.872,482.917,650.136,482.917z M645.864,490.35 c-1.736,0-3.143-1.45-3.143-3.239c0-1.789,1.407-3.239,3.143-3.239c1.736,0,3.143,1.45,3.143,3.239 C649.007,488.9,647.6,490.35,645.864,490.35z"/>
                    <path style="fill:#EDD1DC;" d="M669.478,482.917c-0.416,0-0.811,0.088-1.174,0.239c0.074-0.276,0.127-0.561,0.127-0.862 c0-1.789-1.407-3.239-3.143-3.239s-3.143,1.45-3.143,3.239c0,0.301,0.053,0.586,0.127,0.862 c-0.363-0.151-0.759-0.239-1.174-0.239c-1.736,0-3.143,1.45-3.143,3.239c0,1.314,0.763,2.44,1.854,2.948 c-0.33,0.512-0.524,1.126-0.524,1.786c0,1.789,1.407,3.239,3.143,3.239c1.215,0,2.258-0.719,2.781-1.759 c0.523,1.04,1.565,1.759,2.78,1.759c1.736,0,3.143-1.45,3.143-3.239c0-0.638-0.185-1.228-0.493-1.729 c1.161-0.476,1.984-1.639,1.984-3.005C672.622,484.367,671.214,482.917,669.478,482.917z M665.207,490.35 c-1.736,0-3.143-1.45-3.143-3.239c0-1.789,1.407-3.239,3.143-3.239s3.143,1.45,3.143,3.239 C668.35,488.9,666.943,490.35,665.207,490.35z"/>
                    <path style="fill:#EDD1DC;" d="M688.821,482.917c-0.416,0-0.811,0.088-1.174,0.239c0.074-0.276,0.127-0.561,0.127-0.862 c0-1.789-1.407-3.239-3.143-3.239s-3.143,1.45-3.143,3.239c0,0.301,0.052,0.586,0.127,0.862 c-0.363-0.151-0.759-0.239-1.175-0.239c-1.736,0-3.143,1.45-3.143,3.239c0,1.314,0.763,2.44,1.854,2.948 c-0.33,0.512-0.524,1.126-0.524,1.786c0,1.789,1.407,3.239,3.143,3.239c1.215,0,2.258-0.719,2.78-1.759 c0.523,1.04,1.565,1.759,2.781,1.759c1.736,0,3.143-1.45,3.143-3.239c0-0.638-0.185-1.228-0.493-1.729 c1.161-0.476,1.984-1.639,1.984-3.005C691.964,484.367,690.557,482.917,688.821,482.917z M684.55,490.35 c-1.736,0-3.143-1.45-3.143-3.239c0-1.789,1.407-3.239,3.143-3.239c1.736,0,3.143,1.45,3.143,3.239 C687.693,488.9,686.285,490.35,684.55,490.35z"/>
                    <path style="fill:#EDD1DC;" d="M708.164,482.917c-0.416,0-0.811,0.088-1.175,0.239c0.074-0.276,0.127-0.561,0.127-0.862 c0-1.789-1.407-3.239-3.143-3.239s-3.143,1.45-3.143,3.239c0,0.301,0.052,0.586,0.127,0.862 c-0.363-0.151-0.758-0.239-1.174-0.239c-1.736,0-3.143,1.45-3.143,3.239c0,1.314,0.763,2.44,1.854,2.948 c-0.33,0.512-0.524,1.126-0.524,1.786c0,1.789,1.407,3.239,3.143,3.239c1.215,0,2.258-0.719,2.781-1.759 c0.523,1.04,1.565,1.759,2.781,1.759c1.736,0,3.143-1.45,3.143-3.239c0-0.638-0.185-1.228-0.493-1.729 c1.161-0.476,1.984-1.639,1.984-3.005C711.307,484.367,709.9,482.917,708.164,482.917z M703.892,490.35 c-1.736,0-3.143-1.45-3.143-3.239c0-1.789,1.407-3.239,3.143-3.239c1.736,0,3.143,1.45,3.143,3.239 C707.035,488.9,705.628,490.35,703.892,490.35z"/>
                  </g>
                  <polygon style="fill:#EDD1DC;" points="599.54,471.623 598.794,476.158 713.134,476.081 712.314,471.7 &#9;&#9;&#9;&#9;&#9;&#9;&#9;&#9;&#9;&#9;"/>
                  <polygon style="fill:#FFFFFF;" points="598.794,476.158 655.517,476.12 655.517,471.661 599.54,471.623 &#9;&#9;&#9;&#9;&#9;&#9;&#9;&#9;&#9;&#9;"/>
                </g>
              </g>
            </g>
            <g>
              <g>
                <ellipse style="fill:#ECB888;" cx="655.859" cy="373.762" rx="53.775" ry="65.642"/>
                <path style="fill:#D89D6C;" d="M655.859,308.12c-0.136,0-0.27,0.005-0.405,0.006v131.271 c0.135,0.001,0.27,0.006,0.405,0.006c29.699,0,53.775-29.389,53.775-65.642C709.634,337.509,685.558,308.12,655.859,308.12 z"/>
              </g>
              <g>
                <g>
                  <path style="fill:#231F20;" d="M666.696,367.471c-2.616,0-4.737,2.186-4.737,4.882c0,2.696,2.121,4.882,4.737,4.882 c2.616,0,4.737-2.186,4.737-4.882C671.434,369.657,669.313,367.471,666.696,367.471z"/>
                  <path style="fill:#231F20;" d="M670.041,354.473c-3.162,0-6.022,1.018-8.082,2.66v4.155 c1.943-2.737,16.341-3.423,18.423-1.576C678.591,356.621,674.636,354.473,670.041,354.473z"/>
                </g>
                <g>
                  <path style="fill:#231F20;" d="M644.074,367.759c-2.616,0-4.737,2.186-4.737,4.882c0,2.696,2.121,4.882,4.737,4.882 c2.616,0,4.737-2.186,4.737-4.882C648.812,369.945,646.691,367.759,644.074,367.759z"/>
                  <path style="fill:#231F20;" d="M630.389,359.422c2.082-1.847,16.479-1.16,18.423,1.576v-4.155 c-2.06-1.642-4.92-2.66-8.082-2.66C636.135,354.184,632.18,356.333,630.389,359.422z"/>
                </g>
                <path style="fill:#C2185B;" d="M664.445,401.655c-1.579-0.655-3.066-1.68-4.694-2.098 c-1.627-0.418-3.526-0.083-4.578,1.552h-0.28c-1.052-1.635-2.95-1.971-4.578-1.552c-1.627,0.418-3.115,1.444-4.694,2.098 c-2.217,0.919-4.621,1.092-6.905,0.496c3.931,5.951,10.241,9.197,16.316,8.429c6.076,0.768,12.385-2.478,16.316-8.429 C669.067,402.747,666.662,402.575,664.445,401.655z"/>
              </g>
              <path style="fill:#563E3B;" d="M693.377,317.051c-3.051-1.659-6.972-2.056-9.867-0.122 c1.547-5.752-1.887-11.948-6.707-15.259c-4.82-3.31-10.736-4.355-16.471-5.193c-4.426-0.647-8.89-1.217-13.354-0.987 c-5.844,0.301-11.56,1.973-16.968,4.275c-16.505,7.026-36.036,30.557-38.376,48.801 c-7.826,61.01,24.491,72.141,29.536,77.938c-2.031-18.843,2.884-36.579,11.188-53.496 c8.795-17.917,26.756-31.081,42.514-42.889c4.534,2.196,11.188,10.146,19.691,30.437 c9.431,22.507,10.737,34.939,7.16,44.734c9.398-9.685,19.765-21.731,14.768-52.113 C712.016,325.969,696.428,318.71,693.377,317.051z"/>
              <path style="fill:#6D4C41;" d="M646.978,295.491c-5.844,0.301-11.56,1.973-16.968,4.275 c-16.505,7.026-36.036,30.557-38.376,48.801c-7.826,61.01,24.491,72.141,29.536,77.938 c-2.031-18.843,2.884-36.579,11.188-53.496c5.193-10.578,13.581-19.499,22.823-27.462v-49.742 C652.453,295.511,649.715,295.349,646.978,295.491z"/>
            </g>
          </g>
        </g>
      </g>
    </g>
  </g>
</svg>